<svg width="58" height="97" fill="none" xmlns="http://www.w3.org/2000/svg"><path d="M52.907 60.978a64.484 64.484 0 00-4.407-.996c.394-2.944.612-5.913.727-8.82 1.548.282 3.093.569 4.638.873l.236.024a285.43 285.43 0 01-1.194 8.92zm-1.49 9.057l-.098-.04a69.025 69.025 0 00-4.861-.625c.7-2.183 1.235-4.44 1.637-6.73 1.436.459 2.88.888 4.337 1.24-.326 2.053-.646 4.109-1.015 6.155zm-5.057 23.05c-5.9-1.277-11.832-2.354-17.819-3.15-3.19-.426-6.392-.763-9.599-1.041.348-5.216.945-11.986 6.813-13.694 7.955-2.315 7.62 9.015 7.382 13.585-.083 1.633 2.163 1.71 2.675.362 2.418-6.363-.743-18.032-9.173-17.217-8.44.82-10.296 9.765-9.74 16.778-1.05-.078-2.453-.024-3.946.028-2.832.101-5.986.202-7.68-.59-1.312.406-1.768-.073-1.37-1.437a14.996 14.996 0 01-.025-2.716c.019-1.74.133-3.483.2-5.22.147-3.915.3-7.83.445-11.745.015-.422.033-.844.049-1.267 3.317.855 9.25 2.681 11.097-.666 1.233-2.235 1.35-5.562 1.546-8.413.698-.396.754-1.445.176-1.958l.03-.273c.368-2.716.846-5.437 1.113-8.17 7.531 1.129 15.063 2.235 22.577 3.478l-.088.157c-2.04 6.488-2.635 13.617-3.038 20.375-.051.852.727 1.427 1.491 1.49 3.808.315 7.67.764 11.493.748a307.537 307.537 0 01-4.61 20.557zM4.9 56.575a471.8 471.8 0 003.075.121c-.01 2.632.13 5.269.46 7.915-1.293-.11-2.643-.323-3.803-.392.101-2.546.194-5.095.267-7.644zM8.993 44.8a78.681 78.681 0 00-.983 9.778c-1.02.036-2.04.076-3.06.12.075-3.52.072-7.038-.11-10.553 1.383.23 2.769.435 4.153.654zm5.23 12.04c-.031.245-.058.493-.09.738-.297 2.326.142 6.152-2.562 6.904-.424.117-.906.17-1.414.187a126.76 126.76 0 01.052-7.899c1.34.04 2.677.06 4.014.07zM10.32 54.5c.19-3.115.518-6.222 1.042-9.329 1.427.222 2.854.458 4.282.673-.501 2.835-.81 5.724-1.136 8.59-1.394.008-2.791.028-4.188.067zm30.763 14.426c.211-2.823.542-5.627.89-8.428 1.051.39 2.11.774 3.172 1.15-.247 2.515-.468 5.032-.604 7.551a503.73 503.73 0 00-3.458-.273zm4.276-9.51a204.07 204.07 0 00-3.193-.504c.364-2.897.731-5.794.995-8.706l-.01-.112c1.022.173 2.044.355 3.065.534l-.082.3c-.2 2.831-.49 5.66-.775 8.488zM33.712 6.553C40.71 20.17 47.215 34.02 53.177 48.124c-11.458-2.284-23.105-4.334-34.795-5.466-.448-.443-1.228-.52-1.747-.162a192.03 192.03 0 00-11.178-.685c11.341-9.74 20.391-22.56 28.255-35.257zm24.12 41.755A626.78 626.78 0 0035.75 1.05c-.767-1.476-2.922-1.324-3.728 0C23.24 15.487 12.38 28.107 2.488 41.717c-1.109-.004-1.418 1.8-.263 1.998l.08.012c-1.182 9.004-1.26 18.15-1.597 27.215-.163 4.351-.325 8.699-.486 13.05-.065 1.768-.759 5.112.688 6.682.885.96 1.927.865 3.067 1.091 2.47.492 5.206.48 7.904.469 1.725-.007 3.434-.014 5.051.109 10.202.782 20.284 2.38 30.265 4.608.945.21 1.963-.28 2.223-1.262a309.728 309.728 0 008.4-44.806 1.578 1.578 0 00-.13-.874c.321-.43.43-1.008.14-1.701z" fill="#FFD787"/></svg>