<svg width="135" height="68" fill="none" xmlns="http://www.w3.org/2000/svg"><path d="M90.751 8.73c3.748 2.938 7.279 6.101 10.672 9.427-3.89.688-7.78 1.036-11.766 1.145-.634.015-1.04.35-1.262.779a86.945 86.945 0 00-12.889-9.19c4.89-3.985 8.935-7.108 15.245-2.16zm1.713 20.151c.12.126.244.222.371.301l-.002.007c-1.159 8.468-2.31 16.05-9.677 21.147h-.008c-16.12 2.995-32.744 1.848-47.209-6.415-4.1-2.34-7.946-5.115-11.556-8.196 7.89-8.478 9.778-20.849 6.804-31.796l-.043-.109c22.38-2.016 45.212 7.995 61.32 25.061zm7.828 1.682a264.529 264.529 0 01-5.108 22.558c-2.153-1.277-4.313-2.543-6.537-3.69 4.967-4.466 6.535-12.59 7.195-19.014 1.483.067 2.966.113 4.45.146zm3.172 6.125c6.453-2.414 10.798 5.62 15.195 9.768-2.192 2.047-4.532 4.079-7.478 4.851-4.087 1.072-7.786-.68-10.961-3.16a.75.75 0 00-.576-.15 227.09 227.09 0 002.577-11.51c.296.275.724.396 1.243.201zm20.287 4.45c1.906 2.762 3.745 5.309 6.238 7.353-4.491 2.899-7.897 7.425-13.279 8.742-6.683 1.636-13.385-.984-17.93-5.882.188-.698.36-1.398.54-2.099 2.16 3.604 6.3 5.438 10.468 5.184 4.899-.302 8.78-3.738 12.144-6.986.721-.698.474-1.81-.3-2.328-5.964-3.994-10.086-14.498-18.918-11.156h-.005l.042-.219.288-.103c8.807-4.132 15.666.183 20.712 7.493zM4.215 12.784c7.4-4.554 15.234-7.317 23.175-8.522-.016.219-.006.447.062.697 2.874 10.497.411 19.948-5.144 28.941-6.877-6.245-12.87-13.584-18.093-21.116zM81.85 54.106c2.102 2.11 7.252 5.952 7.886 8.84.48 2.174.877 1.2-1.447 1.625-1.842.338-4.43 0-6.305 0-3.318 0-7.246.578-10.507 0-3.259-.576-5.022-1.712-6.346-4.902-.528-1.27-.727-2.784-1.053-4.174 5.618.118 11.398-.65 17.302-2.462-.009.352.126.728.47 1.073zM73.403 9.702C50.95-2.554 23.685-4.265.871 10.767c-.744.491-1.171 1.565-.622 2.38C14.633 34.503 36.581 53.91 62.031 55.418c-.235 3.695-.005 9.582 3.51 11.64 2.26 1.322 5.584.779 8.037.78h11.559c2.81 0 8.8 1.253 8.846-3.23.043-4.253-6.794-10.102-9.844-12.56a12.307 12.307 0 002.886-1.37c2.555 2.333 5.373 4.24 8.34 6.024.836.505 1.927.021 2.192-.892.146-.506.274-1.014.417-1.519 3.693 4.488 9.185 6.981 15.133 6.935 9.3-.072 13.308-7.507 21.043-11.052 1.208-.555 1.056-2.407 0-3.006-6.837-3.869-8.834-12.43-15.7-16.33-4.721-2.683-10.12-2.797-15.01-.91.023-.141.052-.28.074-.42.158-.955-.39-1.872-1.438-1.89-2.203-.035-4.406-.082-6.61-.062a1.669 1.669 0 00-.48-1.201A87.83 87.83 0 0090.9 22.32c4.828.001 9.546-.571 14.281-1.587 1.232-.264 1.524-1.881.716-2.719-3.552-3.684-7.25-7.206-11.2-10.461-2.34-1.928-5.167-4.853-8.118-5.683-4.89-1.374-10.163 3.66-13.176 7.832z" fill="#FFD787"/><path d="M50.944 16.223c4.583 2.346 6.001 7.822 4.714 12.521-.564 2.06-1.966 4.947-4.219 5.712-2.623.89-6.125-.79-8.004-2.495-3.33-3.023-3.79-7.64-2.84-11.796 1.956-3.984 6.137-6.097 10.35-3.942zm-13.59 2.994c-.178.609.038 1.156.424 1.548-5.738 13.029 15.715 25.76 20.945 10.368 2.298-6.762.17-14.968-6.633-18.154-5.71-2.673-12.923.028-14.736 6.238z" fill="#FFD787"/></svg>