<svg width="91" height="62" fill="none" xmlns="http://www.w3.org/2000/svg"><path d="M87.383 37.222c-1.372 8.972-16.11 12.975-21.86 5.982-1.225-1.49-3.683.447-2.655 2.06.333.526.709.984 1.107 1.41 2.436 7.01-8.409 11.888-13.868 11.771-7.29-.154-12.489-5.792-13.307-12.836a1.87 1.87 0 00-.318-.848l.044-.208c.21-1.455-1.83-2.127-2.256-.625l-.066.208c-.48.237-.827.719-.809 1.473.007.22.038.43.053.648-2.73 6.59-8.668 11.443-16.258 10.526-9.568-1.155-14.15-13.176-4.268-18.111 1.519-.76.453-3.18-1.141-2.726-5.704 1.618-10.723-4.625-6.011-10.201 2.718-3.218 7.56-2.824 11.104-1.731 1.007.31 1.452-1.067.678-1.62-.156-.111-.322-.196-.481-.298.332-.34.374-.913-.16-1.268-7.377-4.925-4.108-14.255 4.128-15.504 6.104-.927 11.922 2.041 14.32 7.76.292.697.877.78 1.386.544.37.88 1.955.905 2.24-.187C41.553 3.587 54.597.782 62.652 5.472c8.018 4.668 9.044 14.94 3.942 22.139-1.023 1.443 1.261 3.198 2.438 1.893l.213-.272c.243-.004.483-.073.684-.243 7.004-5.958 19.032-2.103 17.453 8.233zM72.22 24.221c3.076-8.351-.913-18.536-9.382-22.437-8.706-4.007-22.541-1.307-25.612 8.54C34.505 2.111 21.665-.43 14.91 3.805c-5.381 3.373-7.593 12.347-3.197 16.502C6.397 19.882.988 23 .1 29.106c-.762 5.252 2.93 9.41 7.442 10.229-4.8 5.886-3.41 15.02 4.389 18.685 8.167 3.837 17.98.024 22.397-7.355 2.623 7.528 10.46 12.38 18.716 11.143 5.886-.88 14.202-6.554 14.074-12.883 3.587 1.618 8.109 1.33 11.947.479 6.386-1.414 11.27-5.67 11.88-12.494.944-10.551-10.518-17.138-18.724-12.69z" fill="#FDFAF5"/></svg>