<svg width="185" height="160" fill="none" xmlns="http://www.w3.org/2000/svg"><path d="M174.314 90.754c-2.632 6.27-9.127 7.747-15.015 5.929-.103-.254-.204-.508-.328-.754-.734-1.459-3.44-.989-2.976.813 1.203 4.67.797 9.691-3.472 12.745-4.671 3.34-10.894 1.201-14.196-2.895-.354-.438-.789-.543-1.187-.468-.29-.017-.584.083-.766.337-1.54 2.152-2.677 4.142-5.459 4.835-3.003.749-5.863-.657-7.327-3.322-3.393-6.173 1.526-11.674 7.579-12.722 1.191-.206 1.218-1.944-.005-2.127l-.266-.018c-5.123-3.437-12.533-7.887-7.403-14.9 4.722-6.454 12.632-3.702 17.725.515 1.203.996 3.053-.84 1.938-1.997-.198-.207-.416-.396-.627-.593.65.153 1.459-.15 1.485-.932.227-7 5.78-13.426 13.25-12.3 7.35 1.107 10.269 8.849 6.543 14.685-.61.198-.901.724-.873 1.267-.853 1.62 1.565 3.199 2.907 1.703l.084-.107c1.859.258 3.749.477 5.47 1.203 3.841 1.618 4.404 5.562 2.919 9.103zM93.749 67.598c-11.463 4.643-17.928 17.217-14.72 29.044-2.888-.243-5.867.225-8.62 1.336-2.995-15.552.985-31.474 16.315-38.931 14.808-7.205 32.282-1.306 40.612 12.572-2.489.624-4.786 2.004-6.57 4.356-4.487-9.638-17.22-12.345-27.017-8.377zM87.48 105.41c5.151 7.242-.51 15.888-8.56 15.43a8.528 8.528 0 00-1.15-.866c-1.26-.778-3.137.76-1.955 2.013 3.21 3.403 4.701 8.909.91 12.613-4.06 3.965-10.918 1.864-13.767-2.445-.186-.281-.474-.279-.691-.139-.58-.306-1.344-.193-1.638.586-2.438 6.449-4.731 13.747-13.332 13.594-11.676-.21-5.544-14.312-3.022-20.168.846-.879-.179-2.213-1.327-1.864-3.68 1.121-12.751 5.002-13.384-2.041-.551-6.111 6.492-7.791 11.312-7.744.23.145.453.302.702.425 1.221.607 2.552-1.152 1.611-2.154-4.766-5.077-3.206-10.726 3.435-13.373 6.082-2.424 14.023-.762 14.589 6.886.1 1.34 2.142 1.282 2.316-.006.021-.163.03-.317.044-.476.423.18.92.171 1.355-.192 6.623-5.52 16.654-8.376 22.552-.079zM50.604 58.992c6.15-12.887 17.142-22.742 30.481-27.78 27.344-10.323 57.707 2.814 70.119 28.913-4.213 1.557-7.383 5.285-8.748 9.833-6.174-21.768-29.908-35.375-52.1-29.726-20.672 5.263-47.064 33.085-32.462 55.274.853 1.295 2.902.004 2.312-1.372-9.518-22.177 11.632-46.181 32.767-50.588 20.853-4.35 42.094 9.635 46.617 30.343-2.484-1.522-5.334-2.476-8.154-2.64a1.856 1.856 0 00-.244-.702c-9.111-15.62-28.073-22.77-44.908-15.163-15.746 7.114-25.453 26.889-17.706 43.21l.123.166a18.003 18.003 0 00-5.214 4.095c-1.29-7.431-10.996-9.419-17.771-6.901-.675-13.037-.91-24.812 4.888-36.962zm117.28 18.417c3.077-6.785-.676-15.31-8.26-17.488a14.304 14.304 0 00-4.34-.572 2.353 2.353 0 00-.146-.405c-13.216-27.855-45.217-41.82-74.5-31.465-14.06 4.972-25.775 15.132-32.612 28.376-6.121 11.859-9.502 28.13-4.53 40.95l.081.132c-3.566 1.909-6.533 4.823-6.756 9.098-.119 2.284.531 4.55 1.848 6.316-6.29.093-13.296 3.051-12.101 10.614 1.014 6.409 7.533 7.217 12.867 5.569-4.358 7.043-4.053 18.747 4.826 21.004 8.03 2.044 18.947-5.81 18.937-14.433 3.314 4.773 10.66 6.103 15.326 2.124 3.652-3.114 4.644-9.029 2.624-13.37 8.357.202 14.535-10.479 10.845-18.367-2.15-4.598-5.965-7.346-10.254-8.41-1.483-9.399.844-18.817 9.244-24.362 9.139-6.034 24.598-4.539 27.416 7.78.027.12.067.229.112.334-1.023 5.39 2.94 10.096 8.154 12.65-6.404 2.067-9.616 10.641-5.498 16.617 2.266 3.289 6.21 4.917 10.114 3.949 2.319-.575 4.918-2.163 6.085-4.38 3.869 4.391 10.602 5.854 15.899 3.053 4.619-2.441 7.423-8.085 6.771-13.25 7.029 2.725 15.328-1.253 17.877-8.617 2.766-7.987-3.05-12.87-10.029-13.447z" fill="#FEB9CC"/></svg>