<svg class="intro-mask-desktop" width="1366" height="100" preserveAspectRatio="none" xmlns="http://www.w3.org/2000/svg"><path d="M0 76.58c80.28-8.83 143.31-17.75 187.32-24.51 25.43-3.91 53.8-8.52 94.47-11.74 14.89-1.18 52.18-3.82 111.83-3.06 63.01.8 112.44 4.89 148.09 8.17 46.28 4.25 77.25 7.85 258.38 30.64 22.09 2.78 111.02 13.97 204.26 20.43 10.44.72 40.72 2.75 80.68 2.57 36.91-.17 65.34-.41 102.13-6.15 23.1-3.6 54.35-8.68 91.91-24.51 37.86-15.95 55.94-31.78 63.83-39.32 10.67-10.2 18.2-20 23.1-27.08v97.04H0V76.58z" fill="#FEFCFA" stroke="#FEFCFA" stroke-miterlimit="10"/></svg>