<svg width="56" height="58" fill="none" xmlns="http://www.w3.org/2000/svg"><path d="M1.076 35.16c5.47 1.529 10.902 3.2 16.335 4.855l.04.158c2.01 5.669 4.336 11.244 6.519 16.85.405 1.041 1.848 1.402 2.48.324 1.828-3.12 3.712-6.205 5.525-9.333 1.325-2.288 3.078-4.647 3.56-7.273.108.056.228.103.37.13 5.675 1.098 11.38 1.515 17.154 1.142 1.051-.068 1.665-1.095 1.173-2.044-2.69-5.195-5.824-10.064-9.935-14.255-.567-.579-1.598.177-1.14.879 2.718 4.181 5.388 8.379 7.704 12.791-4.782.12-9.497-.24-14.225-1.16-.872-.17-1.49.418-1.67 1.086a.666.666 0 00-.519.096c-2.361 1.685-3.597 4.652-5.019 7.122-1.327 2.306-2.617 4.63-3.918 6.95-1.777-4.69-3.52-9.401-5.463-14.019a1.412 1.412 0 00-.715-.749c-.011-.531-.298-1.051-.951-1.25-4.657-1.417-9.317-2.838-13.952-4.328 4.617-3.977 9.423-7.618 14.327-11.27.489-.363.56-.893.388-1.316a1.34 1.34 0 00.113-.48c.196-5.457.092-10.932.09-16.397 4.588 3.203 9.16 6.385 13.672 9.704-.184.963.903 2.126 2.099 1.558A87.054 87.054 0 0151.933 8.95c-2.856 5.233-6.273 10.1-9.027 15.385-.415.798.575 1.582 1.248.96 5.135-4.743 8.652-11.482 11.678-17.687.556-1.138-.354-2.345-1.606-2.088a85.092 85.092 0 00-19.674 6.609C29.963 7.469 24.493 3.214 18.72.156c-.838-.444-1.903.104-1.905 1.091-.011 6.268-.246 12.553-.077 18.819.004.157.047.286.092.412C10.815 23.62 5.244 27.968.424 32.697c-.797.782-.41 2.166.652 2.463z" fill="#FEB9CC"/></svg>