<svg width="44" height="132" fill="none" xmlns="http://www.w3.org/2000/svg"><path d="M32.775 128.836c2.91-.438 5.848-.968 7.686-3.387 2.042-2.691 1.025-5.845.028-8.801-1.825 2.003-4.759 2.984-7.28 3.654-2.944.783-7.147 1.001-10.492-.052.361 2.093.67 4.482 1.596 6.339 1.012 2.026 2.229 2.394 4.556 2.576 1.283.099 2.648-.138 3.906-.329zm6.552-19.542a.63.63 0 01-.148-.5c-2.471 3.799-8.489 6.002-12.885 6.135-2.091.064-4.588-.161-6.683-1.051 1.585 4.442 6.316 5.576 10.931 4.761 3.715-.656 13.516-3.488 8.785-9.345zm-1.578-5.993a1.374 1.374 0 01-.373.166c-4.666 5.128-13.314 4.831-19.696 3.697-1.508 5.409 7.3 5.842 10.598 5.31 4.108-.664 11.429-3.6 9.47-9.173zm-2.376-1.147c-2.768-27.797-9.128-54.616-16.969-81.386-1.669 1.778-3.578 3.176-5.656 4.172.205.123.403.278.563.505 3.378 4.777 4.087 11.952 5.507 17.558a640.275 640.275 0 014.804 20.407c2.907 13.333 5.362 26.755 7.423 40.241a2.49 2.49 0 01-.008.758 16.564 16.564 0 004.457-1.808 1.578 1.578 0 01-.12-.447zm-18.03-82.683c-3.468-3.23-6.736-6.684-10.024-10.115-.762 1.625-2.367 2.656-4.195 2.762.118 3.868.224 7.736.169 11.6-.002.099-.035.173-.054.258 5.163.34 10.163-1.046 14.103-4.505zM5.293 9.274a5.324 5.324 0 01-.704-.367 9.602 9.602 0 01-.251 1.074 3.086 3.086 0 001.15-.654l-.195-.053zm14.338 95.611c2.378.134 4.67.254 6.886.149l-.037-.138c-2.054-13.487-4.502-26.91-7.402-40.246a636.403 636.403 0 00-4.552-19.44c-1.48-5.905-4.676-12.855-4.259-18.949.01-.138.05-.255.082-.375-2.403.746-4.98.988-7.647.668 7.556 25.524 12.254 52.184 16.929 78.331zm4.542 26.305c-3.146-1.663-3.594-7.932-4.07-10.964a1.308 1.308 0 01.265-1.036c-2.076-1.305-3.37-3.421-2.996-6.646l.015-.049a6.445 6.445 0 01-1.017-1.125c-1.425-2.07-1.306-5.07.905-6.387C12.415 77.998 5.732 51.429.519 24.531c-.088-.449.176-.767.504-.883C.44 16.245.453 8.797.003 1.383-.074.118 1.595-.429 2.44.383 8.524 6.216 14.859 12.254 19.578 19.26l.07.166c.115.093.21.22.275.386 9.909 25.843 15.372 53.475 18.198 80.939.341-.148.74.076.78.413a.94.94 0 01.542.497c1.264 2.594 1.048 4.866-.041 6.764.2-.153.498-.19.777.024 2.075 1.596 2.53 4.336 1.376 6.689-.065.131-.155.241-.226.364.22.021.428.125.544.373 1.412 3.031 2.952 6.573 1.613 9.902-1.32 3.279-4.995 4.485-8.178 5.204-3.122.707-8.168 1.778-11.134.209z" fill="#8DD9E5"/></svg>