<svg width="106" height="84" fill="none" xmlns="http://www.w3.org/2000/svg"><path d="M75.473 53.857c1.329 1.075 3.28.548 4.19-.834 1.018-1.546.118-3.892-1.824-4.096a.731.731 0 01-.45-.22c-.914-.011-1.782.255-2.463 1.047-1.058 1.235-.661 3.125.547 4.103zm-2.757-4.388c1.137-2.336 4.52-3.767 6.826-2.273a.93.93 0 01.411.587c1.734.79 2.793 2.936 2.275 4.944-.736 2.859-4 4.786-6.787 3.562-2.487-1.092-3.951-4.297-2.725-6.82z" fill="#8DD9E5"/><path d="M5.05 66.95c1.692 4.991 4.764 9.365 6.81 14.204.105-.102.224-.2.37-.284 3.79-2.188 7.92-3.705 12.157-4.755-1.78-3-2.286-6.655-.712-10.488 2.237-5.448 11.117-13.552 16.755-7.765l.21.307c3.907.612 7.28 3.336 9.044 6.872a104.63 104.63 0 008.759-3.56c2.25-1.04 4.489-2.542 6.91-3.107a13.557 13.557 0 01-1.749-4.682c-1.248-7.371 4.168-14.835 11.613-15.594.493-.049.86.12 1.115.396 4.879-.32 10.01 2.114 13.082 6.039 4.43-1.548 8.996-2.812 13.513-4.063.26-.073.48-.046.679.014-8.677-11.871-21.488-28.145-37.197-16.37-1.253.939-2.512-.868-1.78-2.002C57.174 10.016 44.82.316 29.772 4.412 11.378 9.418 7.649 31.03 16.213 46.024c.365.64.327 1.24.063 1.707.247.784-.094 1.734-1.127 1.62-10.57-1.183-12.808 9.61-10.1 17.6zm33.66 13.146c5.028-.501 9.297-5.044 8.974-10.255-.345-5.555-5.15-8.773-10.084-9.877a.866.866 0 01-.473-.277c-5.409-1.04-11.012 5.431-11.177 10.492-.206 6.314 7.142 10.474 12.76 9.917zm39.703-17.657c5.882-.515 11.64-6.06 10.153-12.21-1.286-5.32-7.111-8.87-12.535-9.232-.12.083-.24.167-.393.216-4.828 1.524-9.174 5.219-9.088 10.733.095 6.127 5.938 11.013 11.863 10.493zM.402 56.537c1.238-5.734 5.964-10.483 11.606-10.371-9.239-15.4-3.275-37.859 14.087-44.319 16.098-5.99 33.797 3.218 40.311 18.52 5.385-4.337 13.407-4.224 19.652-1.66 9.172 3.767 15.145 12.696 19.777 21.026.608 1.096-.597 1.956-1.493 1.511.169.576-.04 1.286-.772 1.558-4.127 1.547-8.297 3.1-12.515 4.408.221.475.425.963.587 1.466 2.512 7.812-4.478 15.48-11.907 16.661-5.196.829-10.39-1.56-13.478-5.615-1.924 2.102-4.996 3.374-7.513 4.601-2.634 1.284-5.33 2.422-8.062 3.481a11.57 11.57 0 01.258 3.813c-.834 8.045-8.648 13.143-16.327 11.515-3.217-.681-6.131-2.289-8.276-4.488-4.346 1.26-8.386 3.054-12.402 5.145-1.054.55-2.033-.057-2.39-.895-.775.723-2.273.835-2.904-.274C4.277 74.952-1.596 65.785.402 56.537z" fill="#8DD9E5"/><path d="M36.153 72.043c1.026.269 2.274-.027 2.837-.991.856-1.47-.38-3.414-2.092-3.193-.229.031-.377-.106-.443-.283-.867.276-1.589.864-1.892 1.847-.381 1.236.394 2.306 1.59 2.62zm-4.031-2.6c.378-2.621 3.313-5.27 6.031-4.16.5.204.749.712.731 1.177 1.704.279 3.033 1.966 2.854 3.994-.25 2.84-2.795 4.485-5.504 4.042-2.471-.404-4.49-2.427-4.112-5.053zM43.754 31.03c3.956-1.04 7.781-2.396 11.609-3.835a1.675 1.675 0 01-.24-.472c-2.49-7.746-10.055-14.62-18.532-14.157 2.645 6.04 5.164 12.185 7.163 18.464zM34.14 9.476c10.745-.177 21.151 5.406 24.081 16.39.165.614-.004 1.115-.332 1.46.04.31-.06.639-.368.826-4.512 2.76-9.41 4.684-14.405 6.368-.883.298-1.666-.352-1.97-1.119-2.82-7.135-5.433-14.327-8.467-21.379-.495-1.15.066-2.523 1.46-2.546zM32.66 35.35c.392-.707-1.29-4.276-1.51-5.016-1.47-4.951-3.05-9.924-4.169-14.976-7.2 6.653-7.947 14.915-6.08 24.142 2.533-.835 5.075-1.649 7.591-2.533.82-.288 3.73-.828 4.167-1.616zm-6.09-22.745l.015-.004c.293-.599 1.184-.896 1.52-.131 1.721 3.917 3.039 8.003 4.374 12.064 1.015 3.086 3.648 7.814 3.406 10.965-.131 1.705-.468 2.037-1.921 2.908-3.678 2.205-9.145 3.04-13.188 4.371-.964.317-1.642-.304-1.826-1.069a1.408 1.408 0 01-.576-.529c-5.756-9.461-.256-22.87 8.196-28.575z" fill="#8DD9E5"/></svg>