<?xml version="1.0" standalone="no"?>
<!DOCTYPE svg PUBLIC "-//W3C//DTD SVG 20010904//EN"
 "http://www.w3.org/TR/2001/REC-SVG-20010904/DTD/svg10.dtd">
<svg version="1.0" xmlns="http://www.w3.org/2000/svg"
 width="700.000000pt" height="700.000000pt" viewBox="0 0 700.000000 700.000000"
 preserveAspectRatio="xMidYMid meet">
<metadata>
Created by potrace 1.14, written by Peter Selinger 2001-2017
</metadata>
<g transform="translate(0.000000,700.000000) scale(0.100000,-0.100000)"
fill="#000000" stroke="none">
<path d="M2315 6788 c-178 -23 -322 -160 -352 -334 -5 -27 -8 -623 -7 -1324 0
-984 4 -1285 13 -1320 15 -56 63 -141 101 -183 40 -44 124 -93 190 -111 50
-13 -30 -15 -815 -16 -549 0 -886 -4 -914 -11 -166 -38 -299 -180 -319 -341
-4 -29 -7 -622 -7 -1318 1 -1363 -1 -1310 53 -1410 47 -87 130 -156 230 -192
56 -20 71 -20 1332 -22 701 -1 1300 2 1330 7 71 10 164 54 217 103 68 63 120
163 127 246 2 21 12 13 14 -11 5 -60 46 -147 100 -212 31 -37 106 -86 167
-109 l60 -23 1275 -1 c701 -1 1302 3 1335 7 162 24 310 164 341 323 10 53 11
2545 1 2614 -16 107 -80 214 -165 272 -48 33 -120 64 -168 72 -16 2 -373 5
-794 6 -624 1 -757 4 -720 14 91 24 143 59 224 147 23 25 54 88 71 144 13 43
15 220 15 1340 0 1152 -2 1297 -16 1345 -42 146 -148 250 -294 290 -35 10
-332 13 -1310 14 -696 1 -1287 -2 -1315 -6z m1544 -3292 c-2 -2 -20 -6 -39 -9
-75 -9 -181 -78 -238 -154 -35 -46 -85 -166 -75 -177 4 -3 2 -6 -4 -6 -6 0
-14 17 -18 38 -23 130 -151 259 -295 298 -38 11 12 13 314 13 198 1 357 -1
355 -3z"/>
</g>
</svg>
